# xmcd
#
# Track frame offsets:
#	150
#	19078
#	34084
#	50258
#	68228
#	83340
#	97909
#	110491
#	124219
#	141098
#	159327
#	178408
#	190600
#	204881
#	247111
#
# Disc length: 3717 seconds
#
# Revision: 0
# Processed by: cddbd v1.5PL3 Copyright (c) Steve Scherf et al.
# Submitted via: dBpowerAMP V4.0
#
DISCID=c10e830f
DTITLE=Rob Tognoni - Gravy Booby
DYEAR=1900
DGENRE=Blues
TTITLE0=Stones And Colours
TTITLE1=Wanna Be With You
TTITLE2=Everlasting Lovin' Boy
TTITLE3=Take Me Away
TTITLE4=Dark Angel
TTITLE5=The Riverside
TTITLE6=Ain't That Enough
TTITLE7=Lil' Melody
TTITLE8=This Is Love
TTITLE9=The Sinner
TTITLE10=Inside Your Window
TTITLE11=Black Chair
TTITLE12=Bad Girl
TTITLE13=Don't Wake Me Up
TTITLE14=DATA
EXTD=
EXTT0=
EXTT1=
EXTT2=
EXTT3=
EXTT4=
EXTT5=
EXTT6=
EXTT7=
EXTT8=
EXTT9=
EXTT10=
EXTT11=
EXTT12=
EXTT13=
EXTT14=
PLAYORDER=
